<mxfile host="app.diagrams.net" agent="Mozilla/5.0 (Windows NT 10.0; Win64; x64) AppleWebKit/537.36 (KHTML, like Gecko) Chrome/131.0.0.0 Safari/537.36" version="26.0.8">
  <diagram name="Page-1" id="L5Eyc-pm2WbwbRBhwHKc">
    <mxGraphModel dx="2062" dy="655" grid="1" gridSize="10" guides="1" tooltips="1" connect="1" arrows="1" fold="1" page="1" pageScale="1" pageWidth="827" pageHeight="1169" math="0" shadow="0">
      <root>
        <mxCell id="0" />
        <mxCell id="1" parent="0" />
        <mxCell id="sA4tOEPjScwfS_MWqd8i-1" value="ผู้ดูแลระบบ" style="rounded=0;whiteSpace=wrap;html=1;" vertex="1" parent="1">
          <mxGeometry x="-90" y="400" width="90" height="40" as="geometry" />
        </mxCell>
        <mxCell id="sA4tOEPjScwfS_MWqd8i-2" value="3.1" style="swimlane;childLayout=stackLayout;horizontal=1;startSize=30;horizontalStack=0;rounded=1;fontSize=14;fontStyle=0;strokeWidth=2;resizeParent=0;resizeLast=1;shadow=0;dashed=0;align=center;arcSize=20;whiteSpace=wrap;html=1;swimlaneLine=1;glass=0;" vertex="1" parent="1">
          <mxGeometry x="309" y="120" width="190" height="120" as="geometry" />
        </mxCell>
        <mxCell id="sA4tOEPjScwfS_MWqd8i-3" value="ตรวจสอบข้อมูลพนักงาน" style="text;html=1;align=center;verticalAlign=middle;resizable=0;points=[];autosize=1;strokeColor=none;fillColor=none;" vertex="1" parent="sA4tOEPjScwfS_MWqd8i-2">
          <mxGeometry y="30" width="190" height="90" as="geometry" />
        </mxCell>
        <mxCell id="sA4tOEPjScwfS_MWqd8i-4" value="3.2" style="swimlane;childLayout=stackLayout;horizontal=1;startSize=30;horizontalStack=0;rounded=1;fontSize=14;fontStyle=0;strokeWidth=2;resizeParent=0;resizeLast=1;shadow=0;dashed=0;align=center;arcSize=20;whiteSpace=wrap;html=1;swimlaneLine=1;glass=0;" vertex="1" parent="1">
          <mxGeometry x="310" y="280" width="189" height="120" as="geometry" />
        </mxCell>
        <mxCell id="sA4tOEPjScwfS_MWqd8i-5" value="เพิ่มข้อมูลพนักงาน" style="text;html=1;align=center;verticalAlign=middle;resizable=0;points=[];autosize=1;strokeColor=none;fillColor=none;" vertex="1" parent="sA4tOEPjScwfS_MWqd8i-4">
          <mxGeometry y="30" width="189" height="90" as="geometry" />
        </mxCell>
        <mxCell id="sA4tOEPjScwfS_MWqd8i-6" value="3.3" style="swimlane;childLayout=stackLayout;horizontal=1;startSize=30;horizontalStack=0;rounded=1;fontSize=14;fontStyle=0;strokeWidth=2;resizeParent=0;resizeLast=1;shadow=0;dashed=0;align=center;arcSize=20;whiteSpace=wrap;html=1;swimlaneLine=1;glass=0;" vertex="1" parent="1">
          <mxGeometry x="310" y="440" width="189" height="120" as="geometry" />
        </mxCell>
        <mxCell id="sA4tOEPjScwfS_MWqd8i-7" value="แก้ไขข้อมูลพนักงาน" style="text;html=1;align=center;verticalAlign=middle;resizable=0;points=[];autosize=1;strokeColor=none;fillColor=none;" vertex="1" parent="sA4tOEPjScwfS_MWqd8i-6">
          <mxGeometry y="30" width="189" height="90" as="geometry" />
        </mxCell>
        <mxCell id="sA4tOEPjScwfS_MWqd8i-8" value="3.4" style="swimlane;childLayout=stackLayout;horizontal=1;startSize=30;horizontalStack=0;rounded=1;fontSize=14;fontStyle=0;strokeWidth=2;resizeParent=0;resizeLast=1;shadow=0;dashed=0;align=center;arcSize=20;whiteSpace=wrap;html=1;swimlaneLine=1;glass=0;" vertex="1" parent="1">
          <mxGeometry x="310" y="600" width="189" height="120" as="geometry" />
        </mxCell>
        <mxCell id="sA4tOEPjScwfS_MWqd8i-9" value="ลบข้อมูลพนักงาน" style="text;html=1;align=center;verticalAlign=middle;resizable=0;points=[];autosize=1;strokeColor=none;fillColor=none;" vertex="1" parent="sA4tOEPjScwfS_MWqd8i-8">
          <mxGeometry y="30" width="189" height="90" as="geometry" />
        </mxCell>
        <mxCell id="sA4tOEPjScwfS_MWqd8i-10" value="พนักงาน" style="shape=partialRectangle;whiteSpace=wrap;html=1;left=0;right=0;fillColor=none;" vertex="1" parent="1">
          <mxGeometry x="780" y="160" width="120" height="40" as="geometry" />
        </mxCell>
        <mxCell id="sA4tOEPjScwfS_MWqd8i-11" value="D5" style="rounded=0;whiteSpace=wrap;html=1;" vertex="1" parent="1">
          <mxGeometry x="740" y="160" width="40" height="40" as="geometry" />
        </mxCell>
        <mxCell id="sA4tOEPjScwfS_MWqd8i-12" value="" style="endArrow=classic;startArrow=classic;html=1;rounded=0;exitX=0.25;exitY=0;exitDx=0;exitDy=0;entryX=-0.01;entryY=0.229;entryDx=0;entryDy=0;entryPerimeter=0;" edge="1" parent="1" source="sA4tOEPjScwfS_MWqd8i-1" target="sA4tOEPjScwfS_MWqd8i-3">
          <mxGeometry width="50" height="50" relative="1" as="geometry">
            <mxPoint x="350" y="390" as="sourcePoint" />
            <mxPoint x="280" y="200" as="targetPoint" />
            <Array as="points">
              <mxPoint x="-67" y="170" />
            </Array>
          </mxGeometry>
        </mxCell>
        <mxCell id="sA4tOEPjScwfS_MWqd8i-13" value="" style="endArrow=classic;startArrow=classic;html=1;rounded=0;exitX=0.75;exitY=0;exitDx=0;exitDy=0;entryX=0;entryY=0.111;entryDx=0;entryDy=0;entryPerimeter=0;" edge="1" parent="1" source="sA4tOEPjScwfS_MWqd8i-1" target="sA4tOEPjScwfS_MWqd8i-5">
          <mxGeometry width="50" height="50" relative="1" as="geometry">
            <mxPoint x="240" y="320" as="sourcePoint" />
            <mxPoint x="290" y="270" as="targetPoint" />
            <Array as="points">
              <mxPoint x="-22" y="320" />
            </Array>
          </mxGeometry>
        </mxCell>
        <mxCell id="sA4tOEPjScwfS_MWqd8i-14" value="" style="endArrow=classic;startArrow=classic;html=1;rounded=0;exitX=0.75;exitY=1;exitDx=0;exitDy=0;" edge="1" parent="1" source="sA4tOEPjScwfS_MWqd8i-1">
          <mxGeometry width="50" height="50" relative="1" as="geometry">
            <mxPoint x="240" y="570" as="sourcePoint" />
            <mxPoint x="310" y="530" as="targetPoint" />
            <Array as="points">
              <mxPoint x="-22" y="530" />
            </Array>
          </mxGeometry>
        </mxCell>
        <mxCell id="sA4tOEPjScwfS_MWqd8i-15" value="" style="endArrow=classic;startArrow=classic;html=1;rounded=0;exitX=0.25;exitY=1;exitDx=0;exitDy=0;entryX=0.002;entryY=0.47;entryDx=0;entryDy=0;entryPerimeter=0;" edge="1" parent="1" source="sA4tOEPjScwfS_MWqd8i-1" target="sA4tOEPjScwfS_MWqd8i-9">
          <mxGeometry width="50" height="50" relative="1" as="geometry">
            <mxPoint x="240" y="480" as="sourcePoint" />
            <mxPoint x="310" y="660" as="targetPoint" />
            <Array as="points">
              <mxPoint x="-67" y="675" />
            </Array>
          </mxGeometry>
        </mxCell>
        <mxCell id="sA4tOEPjScwfS_MWqd8i-16" value="" style="endArrow=classic;startArrow=classic;html=1;rounded=0;entryX=0;entryY=0.5;entryDx=0;entryDy=0;" edge="1" parent="1" target="sA4tOEPjScwfS_MWqd8i-11">
          <mxGeometry width="50" height="50" relative="1" as="geometry">
            <mxPoint x="500" y="180" as="sourcePoint" />
            <mxPoint x="530" y="170" as="targetPoint" />
          </mxGeometry>
        </mxCell>
        <mxCell id="sA4tOEPjScwfS_MWqd8i-17" value="ข้อมูลพนักงาน" style="text;html=1;align=center;verticalAlign=middle;resizable=0;points=[];autosize=1;strokeColor=none;fillColor=none;" vertex="1" parent="1">
          <mxGeometry x="110" y="140" width="80" height="30" as="geometry" />
        </mxCell>
        <mxCell id="sA4tOEPjScwfS_MWqd8i-18" value="ข้อมูลพนักงาน" style="text;html=1;align=center;verticalAlign=middle;resizable=0;points=[];autosize=1;strokeColor=none;fillColor=none;" vertex="1" parent="1">
          <mxGeometry x="115" y="645" width="80" height="30" as="geometry" />
        </mxCell>
        <mxCell id="sA4tOEPjScwfS_MWqd8i-19" value="ข้อมูลพนักงาน" style="text;html=1;align=center;verticalAlign=middle;resizable=0;points=[];autosize=1;strokeColor=none;fillColor=none;" vertex="1" parent="1">
          <mxGeometry x="115" y="502.5" width="80" height="30" as="geometry" />
        </mxCell>
        <mxCell id="sA4tOEPjScwfS_MWqd8i-20" value="ข้อมูลพนักงาน" style="text;html=1;align=center;verticalAlign=middle;resizable=0;points=[];autosize=1;strokeColor=none;fillColor=none;" vertex="1" parent="1">
          <mxGeometry x="115" y="292.5" width="80" height="30" as="geometry" />
        </mxCell>
        <mxCell id="sA4tOEPjScwfS_MWqd8i-21" value="ข้อมูลพนักงาน" style="text;html=1;align=center;verticalAlign=middle;resizable=0;points=[];autosize=1;strokeColor=none;fillColor=none;" vertex="1" parent="1">
          <mxGeometry x="585" y="150" width="80" height="30" as="geometry" />
        </mxCell>
        <mxCell id="sA4tOEPjScwfS_MWqd8i-22" value="พนักงาน" style="shape=partialRectangle;whiteSpace=wrap;html=1;left=0;right=0;fillColor=none;" vertex="1" parent="1">
          <mxGeometry x="779" y="322.5" width="120" height="40" as="geometry" />
        </mxCell>
        <mxCell id="sA4tOEPjScwfS_MWqd8i-23" value="D5" style="rounded=0;whiteSpace=wrap;html=1;" vertex="1" parent="1">
          <mxGeometry x="739" y="322.5" width="40" height="40" as="geometry" />
        </mxCell>
        <mxCell id="sA4tOEPjScwfS_MWqd8i-24" value="" style="endArrow=classic;startArrow=classic;html=1;rounded=0;entryX=0;entryY=0.5;entryDx=0;entryDy=0;" edge="1" parent="1" target="sA4tOEPjScwfS_MWqd8i-23">
          <mxGeometry width="50" height="50" relative="1" as="geometry">
            <mxPoint x="499" y="342.5" as="sourcePoint" />
            <mxPoint x="529" y="332.5" as="targetPoint" />
          </mxGeometry>
        </mxCell>
        <mxCell id="sA4tOEPjScwfS_MWqd8i-25" value="ข้อมูลพนักงาน" style="text;html=1;align=center;verticalAlign=middle;resizable=0;points=[];autosize=1;strokeColor=none;fillColor=none;" vertex="1" parent="1">
          <mxGeometry x="584" y="312.5" width="80" height="30" as="geometry" />
        </mxCell>
        <mxCell id="sA4tOEPjScwfS_MWqd8i-26" value="พนักงาน" style="shape=partialRectangle;whiteSpace=wrap;html=1;left=0;right=0;fillColor=none;" vertex="1" parent="1">
          <mxGeometry x="780" y="482.5" width="120" height="40" as="geometry" />
        </mxCell>
        <mxCell id="sA4tOEPjScwfS_MWqd8i-27" value="D5" style="rounded=0;whiteSpace=wrap;html=1;" vertex="1" parent="1">
          <mxGeometry x="740" y="482.5" width="40" height="40" as="geometry" />
        </mxCell>
        <mxCell id="sA4tOEPjScwfS_MWqd8i-28" value="" style="endArrow=classic;startArrow=classic;html=1;rounded=0;entryX=0;entryY=0.5;entryDx=0;entryDy=0;" edge="1" parent="1" target="sA4tOEPjScwfS_MWqd8i-27">
          <mxGeometry width="50" height="50" relative="1" as="geometry">
            <mxPoint x="500" y="502.5" as="sourcePoint" />
            <mxPoint x="530" y="492.5" as="targetPoint" />
          </mxGeometry>
        </mxCell>
        <mxCell id="sA4tOEPjScwfS_MWqd8i-29" value="ข้อมูลพนักงาน" style="text;html=1;align=center;verticalAlign=middle;resizable=0;points=[];autosize=1;strokeColor=none;fillColor=none;" vertex="1" parent="1">
          <mxGeometry x="585" y="472.5" width="80" height="30" as="geometry" />
        </mxCell>
        <mxCell id="sA4tOEPjScwfS_MWqd8i-30" value="พนักงาน" style="shape=partialRectangle;whiteSpace=wrap;html=1;left=0;right=0;fillColor=none;" vertex="1" parent="1">
          <mxGeometry x="780" y="645" width="120" height="40" as="geometry" />
        </mxCell>
        <mxCell id="sA4tOEPjScwfS_MWqd8i-31" value="D5" style="rounded=0;whiteSpace=wrap;html=1;" vertex="1" parent="1">
          <mxGeometry x="740" y="645" width="40" height="40" as="geometry" />
        </mxCell>
        <mxCell id="sA4tOEPjScwfS_MWqd8i-32" value="" style="endArrow=classic;startArrow=classic;html=1;rounded=0;entryX=0;entryY=0.5;entryDx=0;entryDy=0;" edge="1" parent="1" target="sA4tOEPjScwfS_MWqd8i-31">
          <mxGeometry width="50" height="50" relative="1" as="geometry">
            <mxPoint x="500" y="665" as="sourcePoint" />
            <mxPoint x="530" y="655" as="targetPoint" />
          </mxGeometry>
        </mxCell>
        <mxCell id="sA4tOEPjScwfS_MWqd8i-33" value="ข้อมูลพนักงาน" style="text;html=1;align=center;verticalAlign=middle;resizable=0;points=[];autosize=1;strokeColor=none;fillColor=none;" vertex="1" parent="1">
          <mxGeometry x="585" y="635" width="80" height="30" as="geometry" />
        </mxCell>
      </root>
    </mxGraphModel>
  </diagram>
</mxfile>
